<svg width="657.9px" height="122px" xmlns="http://www.w3.org/2000/svg" viewBox="-78.94687499999998 14 657.89375 122" style="background: rgba(0, 0, 0, 0)" preserveAspectRatio="xMidYMid"><defs><linearGradient id="editing-gradient-gradient" x1="0" x2="1" y1="0.5" y2="0.5" gradientUnits="objectBoundingBox"><stop offset="0" stop-color="#51b3e6"></stop><stop offset="1" stop-color="#e64dde"></stop></linearGradient></defs><g><g transform="matrix(1.3,0,0,1.5,-43,167.5)"><path d="M -7.8 -52.2 L -21.7 -52.2 L -13.6 -94.4 L 0.5 -94.4 L -7.8 -52.2 Z M 48 -50.9 L 48 -50.9 L 48 -50.9 Q 40.2 -50.9 40.2 -56.9 L 40.2 -56.9 L 40.2 -56.9 Q 40.2 -59.5 41.3 -64.6 L 41.3 -64.6 L 41.3 -64.6 Q 42.5 -69.7 42.8 -71.8 L 42.8 -71.8 L 42.8 -71.8 Q 43.7 -76.4 43.7 -77.9 L 43.7 -77.9 L 43.7 -77.9 Q 43.7 -81.2 41.3 -81.2 L 41.3 -81.2 L 41.3 -81.2 Q 39.7 -81.2 38.2 -79 L 38.2 -79 L 38.2 -79 Q 36.6 -76.8 35.9 -72.3 L 35.9 -72.3 L 32 -52.2 L 19.5 -50.9 L 22.9 -68.3 L 22.9 -68.3 Q 23.5 -71.2 24 -74.4 L 24 -74.4 L 24 -74.4 Q 24.5 -77.7 24.5 -78.2 L 24.5 -78.2 L 24.5 -78.2 Q 24.5 -81.2 22.4 -81.2 L 22.4 -81.2 L 22.4 -81.2 Q 20.9 -81.2 19.3 -79 L 19.3 -79 L 19.3 -79 Q 17.7 -76.8 16.8 -72.3 L 16.8 -72.3 L 12.9 -52.2 L 0.3 -50.9 L 7 -84.8 L 17.4 -86.1 L 16.3 -79.6 L 16.3 -79.6 Q 18 -83.1 21.1 -84.6 L 21.1 -84.6 L 21.1 -84.6 Q 24.1 -86.1 28.9 -86.1 L 28.9 -86.1 L 28.9 -86.1 Q 31.7 -86.1 33.5 -84.8 L 33.5 -84.8 L 33.5 -84.8 Q 35.3 -83.4 35.9 -81.2 L 35.9 -81.2 L 35.9 -81.2 Q 36.9 -83.5 39.7 -84.8 L 39.7 -84.8 L 39.7 -84.8 Q 42.5 -86.1 45.9 -86.1 L 45.9 -86.1 L 45.9 -86.1 Q 49.4 -86.1 51.1 -85.4 L 51.1 -85.4 L 51.1 -85.4 Q 52.8 -84.6 53.8 -83.4 L 53.8 -83.4 L 53.8 -83.4 Q 55.5 -81.2 55.5 -77.1 L 55.5 -77.1 L 55.5 -77.1 Q 55.5 -73 53.8 -64.7 L 53.8 -64.7 L 53.8 -64.7 Q 52.9 -60.6 52.9 -59.1 L 52.9 -59.1 L 52.9 -59.1 Q 52.9 -57.6 53.7 -56.7 L 53.7 -56.7 L 53.7 -56.7 Q 54.6 -55.8 55.9 -55.6 L 55.9 -55.6 L 55.9 -55.6 Q 55.3 -53.5 53 -52.2 L 53 -52.2 L 53 -52.2 Q 50.8 -50.9 48 -50.9 Z M 63.6 -54.1 L 63.6 -54.1 L 63.6 -54.1 Q 62.1 -55.8 61.4 -58.4 L 61.4 -58.4 L 61.4 -58.4 Q 60.8 -61 60.8 -65.3 L 60.8 -65.3 L 60.8 -65.3 Q 60.8 -69.6 62.2 -73.5 L 62.2 -73.5 L 62.2 -73.5 Q 63.7 -77.4 66.4 -80.2 L 66.4 -80.2 L 66.4 -80.2 Q 71.9 -86.1 81 -86.1 L 81 -86.1 L 81 -86.1 Q 84.2 -86.1 86.6 -85 L 86.6 -85 L 97.6 -86.1 L 92.8 -61.1 L 92.8 -61.1 Q 92.6 -60.4 92.6 -59 L 92.6 -59 L 92.6 -59 Q 92.6 -57.6 93.5 -56.7 L 93.5 -56.7 L 93.5 -56.7 Q 94.4 -55.8 95.6 -55.6 L 95.6 -55.6 L 95.6 -55.6 Q 95 -53.5 92.7 -52.2 L 92.7 -52.2 L 92.7 -52.2 Q 90.3 -50.9 87.7 -50.9 L 87.7 -50.9 L 87.7 -50.9 Q 85.1 -50.9 83.3 -51.9 L 83.3 -51.9 L 83.3 -51.9 Q 81.6 -52.9 81 -54.5 L 81 -54.5 L 81 -54.5 Q 80 -52.9 77.8 -51.9 L 77.8 -51.9 L 77.8 -51.9 Q 75.7 -50.9 72.8 -50.9 L 72.8 -50.9 L 72.8 -50.9 Q 69.8 -50.9 67.5 -51.7 L 67.5 -51.7 L 67.5 -51.7 Q 65.1 -52.4 63.6 -54.1 Z M 77.1 -80.1 L 77.1 -80.1 L 77.1 -80.1 Q 76.4 -78.9 75.7 -77 L 75.7 -77 L 75.7 -77 Q 75.1 -75 74 -69.8 L 74 -69.8 L 74 -69.8 Q 73 -64.6 73 -60.9 L 73 -60.9 L 73 -60.9 Q 73 -57.2 73.6 -56.1 L 73.6 -56.1 L 73.6 -56.1 Q 74.1 -55 75.2 -55 L 75.2 -55 L 75.2 -55 Q 77.2 -55 78.7 -56.9 L 78.7 -56.9 L 78.7 -56.9 Q 80.2 -58.9 80.8 -62.4 L 80.8 -62.4 L 84.2 -81.1 L 84.2 -81.1 Q 82.8 -82.3 81.3 -82.3 L 81.3 -82.3 L 81.3 -82.3 Q 79.7 -82.3 78.8 -81.7 L 78.8 -81.7 L 78.8 -81.7 Q 77.8 -81.2 77.1 -80.1 Z M 105.3 -78.9 L 105.3 -78.9 L 105.3 -78.9 Q 107.5 -82 110.8 -84 L 110.8 -84 L 110.8 -84 Q 114.1 -86.1 118.1 -86.1 L 118.1 -86.1 L 118.1 -86.1 Q 122.1 -86.1 124.1 -84.8 L 124.1 -84.8 L 136.6 -86.1 L 132.2 -61.5 L 132.2 -61.5 Q 130 -49 125.3 -44 L 125.3 -44 L 125.3 -44 Q 120.7 -39.4 111.9 -39.4 L 111.9 -39.4 L 111.9 -39.4 Q 105.2 -39.4 101.3 -41.5 L 101.3 -41.5 L 101.3 -41.5 Q 97.5 -43.6 97.5 -47.1 L 97.5 -47.1 L 97.5 -47.1 Q 97.5 -49.7 99.5 -51.2 L 99.5 -51.2 L 99.5 -51.2 Q 101.5 -52.8 104.5 -52.8 L 104.5 -52.8 L 104.5 -52.8 Q 107.2 -52.8 109.3 -51.5 L 109.3 -51.5 L 109.3 -51.5 Q 110.5 -50.9 111.1 -50 L 111.1 -50 L 111.1 -50 Q 109.6 -48.7 109.6 -46.6 L 109.6 -46.6 L 109.6 -46.6 Q 109.6 -43.9 112.1 -43.9 L 112.1 -43.9 L 112.1 -43.9 Q 116.4 -43.9 118.9 -54 L 118.9 -54 L 118.9 -54 Q 119.6 -56.7 120.1 -59.5 L 120.1 -59.5 L 120.1 -59.5 Q 117.3 -56 110.7 -56 L 110.7 -56 L 110.7 -56 Q 106.2 -56 103.6 -58.1 L 103.6 -58.1 L 103.6 -58.1 Q 100.9 -60.3 100.9 -65.4 L 100.9 -65.4 L 100.9 -65.4 Q 100.9 -68.6 102 -72.2 L 102 -72.2 L 102 -72.2 Q 103.1 -75.9 105.3 -78.9 Z M 113.6 -65.2 L 113.6 -65.2 L 113.6 -65.2 Q 113.6 -60.9 115.9 -60.9 L 115.9 -60.9 L 115.9 -60.9 Q 117.4 -60.9 118.9 -62.5 L 118.9 -62.5 L 118.9 -62.5 Q 120 -63.9 120.5 -65.9 L 120.5 -65.9 L 123.7 -82.3 L 123.7 -82.3 Q 123.4 -82.4 123.1 -82.5 L 123.1 -82.5 L 123.1 -82.5 Q 122.5 -82.8 121.6 -82.8 L 121.6 -82.8 L 121.6 -82.8 Q 117.7 -82.8 115.4 -76.4 L 115.4 -76.4 L 115.4 -76.4 Q 113.6 -71.4 113.6 -65.2 Z M 165 -63 L 165 -63 L 165 -63 Q 166.6 -61.9 166.6 -59.5 L 166.6 -59.5 L 166.6 -59.5 Q 166.6 -57.1 165.4 -55.6 L 165.4 -55.6 L 165.4 -55.6 Q 164.2 -54 162.2 -53 L 162.2 -53 L 162.2 -53 Q 158.1 -50.9 153.7 -50.9 L 153.7 -50.9 L 153.7 -50.9 Q 149.3 -50.9 146.7 -51.9 L 146.7 -51.9 L 146.7 -51.9 Q 144.1 -52.8 142.4 -54.6 L 142.4 -54.6 L 142.4 -54.6 Q 139 -58 139 -64.2 L 139 -64.2 L 139 -64.2 Q 139 -73.9 144.2 -79.8 L 144.2 -79.8 L 144.2 -79.8 Q 149.8 -86.1 159.6 -86.1 L 159.6 -86.1 L 159.6 -86.1 Q 165.7 -86.1 168.7 -83.5 L 168.7 -83.5 L 168.7 -83.5 Q 171 -81.6 171 -78.5 L 171 -78.5 L 171 -78.5 Q 171 -67.2 151.5 -67.2 L 151.5 -67.2 L 151.5 -67.2 Q 151.3 -65.6 151.3 -64.1 L 151.3 -64.1 L 151.3 -64.1 Q 151.3 -61.2 152.6 -60.1 L 152.6 -60.1 L 152.6 -60.1 Q 153.9 -59 156.3 -59 L 156.3 -59 L 156.3 -59 Q 158.7 -59 161.3 -60.1 L 161.3 -60.1 L 161.3 -60.1 Q 163.9 -61.2 165 -63 Z M 152 -70 L 152 -70 L 152 -70 Q 156.5 -70 159.1 -72.8 L 159.1 -72.8 L 159.1 -72.8 Q 161.7 -75.5 161.7 -79.8 L 161.7 -79.8 L 161.7 -79.8 Q 161.7 -81.2 161.2 -82 L 161.2 -82 L 161.2 -82 Q 160.7 -82.8 159.6 -82.8 L 159.6 -82.8 L 159.6 -82.8 Q 158.5 -82.8 157.6 -82.4 L 157.6 -82.4 L 157.6 -82.4 Q 156.6 -82 155.7 -80.6 L 155.7 -80.6 L 155.7 -80.6 Q 153.3 -77.4 152 -70 Z M 192.3 -74.6 L 192.3 -74.6 L 192.3 -74.6 Q 193.2 -77 193.2 -79.1 L 193.2 -79.1 L 193.2 -79.1 Q 193.2 -82.8 190.1 -82.8 L 190.1 -82.8 L 190.1 -82.8 Q 188.5 -82.8 187.2 -81.4 L 187.2 -81.4 L 187.2 -81.4 Q 185.9 -80 185.9 -78.2 L 185.9 -78.2 L 185.9 -78.2 Q 185.9 -76.9 186.9 -75.9 L 186.9 -75.9 L 186.9 -75.9 Q 188.4 -74.4 192.1 -72.1 L 192.1 -72.1 L 192.1 -72.1 Q 195.9 -69.8 197.4 -68 L 197.4 -68 L 197.4 -68 Q 198.8 -66.1 198.8 -63.5 L 198.8 -63.5 L 198.8 -63.5 Q 198.8 -60.9 197.6 -58.5 L 197.6 -58.5 L 197.6 -58.5 Q 196.3 -56.1 194.1 -54.5 L 194.1 -54.5 L 194.1 -54.5 Q 189.3 -50.9 181.6 -50.9 L 181.6 -50.9 L 181.6 -50.9 Q 177.4 -50.9 174.2 -53.1 L 174.2 -53.1 L 174.2 -53.1 Q 171 -55.2 171 -57.7 L 171 -57.7 L 171 -57.7 Q 171 -60.2 172.9 -61.6 L 172.9 -61.6 L 172.9 -61.6 Q 174.7 -63.1 177.4 -63.1 L 177.4 -63.1 L 177.4 -63.1 Q 180.1 -63.1 181.7 -62.1 L 181.7 -62.1 L 181.7 -62.1 Q 180.9 -60 180.9 -58.6 L 180.9 -58.6 L 180.9 -58.6 Q 180.9 -54.4 184.5 -54.4 L 184.5 -54.4 L 184.5 -54.4 Q 186 -54.4 187 -55.3 L 187 -55.3 L 187 -55.3 Q 188.1 -56.3 188.1 -57.9 L 188.1 -57.9 L 188.1 -57.9 Q 188.1 -61.2 182.5 -64.7 L 182.5 -64.7 L 182.5 -64.7 Q 178.1 -67.6 177 -68.8 L 177 -68.8 L 177 -68.8 Q 175.3 -70.8 175.3 -73.4 L 175.3 -73.4 L 175.3 -73.4 Q 175.3 -75.9 176.5 -78.4 L 176.5 -78.4 L 176.5 -78.4 Q 177.7 -80.8 180 -82.5 L 180 -82.5 L 180 -82.5 Q 184.7 -86.1 192.8 -86.1 L 192.8 -86.1 L 192.8 -86.1 Q 196.9 -86.1 199.4 -84.4 L 199.4 -84.4 L 199.4 -84.4 Q 201.9 -82.8 201.9 -80 L 201.9 -80 L 201.9 -80 Q 201.9 -77.1 200.2 -75.5 L 200.2 -75.5 L 200.2 -75.5 Q 198.5 -73.9 195.4 -73.9 L 195.4 -73.9 L 195.4 -73.9 Q 193.3 -73.9 192.3 -74.6 Z M 243.3 -72.8 L 256.3 -73.9 L 256.3 -73.9 Q 251.7 -63.8 251.7 -52.1 L 251.7 -52.1 L 251.7 -52.1 Q 249.9 -50.9 247.4 -50.9 L 247.4 -50.9 L 247.4 -50.9 Q 244.9 -50.9 243.3 -52.1 L 243.3 -52.1 L 243.3 -52.1 Q 241.7 -53.3 241.4 -54.5 L 241.4 -54.5 L 241.4 -54.5 Q 239.8 -52.8 237.2 -51.9 L 237.2 -51.9 L 237.2 -51.9 Q 234.6 -50.9 231.8 -50.9 L 231.8 -50.9 L 231.8 -50.9 Q 229.1 -50.9 226.7 -51.8 L 226.7 -51.8 L 226.7 -51.8 Q 224.3 -52.7 222.4 -54.7 L 222.4 -54.7 L 222.4 -54.7 Q 218.3 -59 218.3 -67.3 L 218.3 -67.3 L 218.3 -67.3 Q 218.3 -80.1 225.2 -87.8 L 225.2 -87.8 L 225.2 -87.8 Q 232.2 -95.7 244.7 -95.7 L 244.7 -95.7 L 244.7 -95.7 Q 253.3 -95.7 256.4 -91.2 L 256.4 -91.2 L 256.4 -91.2 Q 257.4 -89.8 257.4 -88.1 L 257.4 -88.1 L 257.4 -88.1 Q 257.4 -86.4 256.6 -85 L 256.6 -85 L 256.6 -85 Q 255.9 -83.5 254.7 -82.4 L 254.7 -82.4 L 254.7 -82.4 Q 252 -79.8 248.6 -79.8 L 248.6 -79.8 L 248.6 -79.8 Q 247.3 -79.8 246 -80.3 L 246 -80.3 L 246 -80.3 Q 246.2 -82.2 246.2 -84.4 L 246.2 -84.4 L 246.2 -84.4 Q 246.2 -86.7 246.1 -87.7 L 246.1 -87.7 L 246.1 -87.7 Q 245.9 -88.7 245.5 -89.6 L 245.5 -89.6 L 245.5 -89.6 Q 244.7 -91.3 242.9 -91.3 L 242.9 -91.3 L 242.9 -91.3 Q 241 -91.3 239 -89.3 L 239 -89.3 L 239 -89.3 Q 237 -87.4 235.4 -84.2 L 235.4 -84.2 L 235.4 -84.2 Q 231.9 -77 231.9 -68.4 L 231.9 -68.4 L 231.9 -68.4 Q 231.9 -64.4 233.4 -61.6 L 233.4 -61.6 L 233.4 -61.6 Q 235.1 -58.5 238 -58.5 L 238 -58.5 L 238 -58.5 Q 239.1 -58.5 240 -59 L 240 -59 L 240 -59 Q 240.9 -59.5 241.3 -59.9 L 241.3 -59.9 L 243.3 -72.8 Z M 262.2 -54.1 L 262.2 -54.1 L 262.2 -54.1 Q 260.7 -55.8 260 -58.4 L 260 -58.4 L 260 -58.4 Q 259.3 -61 259.3 -65.3 L 259.3 -65.3 L 259.3 -65.3 Q 259.3 -69.6 260.8 -73.5 L 260.8 -73.5 L 260.8 -73.5 Q 262.3 -77.4 265 -80.2 L 265 -80.2 L 265 -80.2 Q 270.5 -86.1 279.6 -86.1 L 279.6 -86.1 L 279.6 -86.1 Q 282.8 -86.1 285.2 -85 L 285.2 -85 L 296.1 -86.1 L 291.4 -61.1 L 291.4 -61.1 Q 291.2 -60.4 291.2 -59 L 291.2 -59 L 291.2 -59 Q 291.2 -57.6 292.1 -56.7 L 292.1 -56.7 L 292.1 -56.7 Q 292.9 -55.8 294.2 -55.6 L 294.2 -55.6 L 294.2 -55.6 Q 293.6 -53.5 291.3 -52.2 L 291.3 -52.2 L 291.3 -52.2 Q 288.9 -50.9 286.3 -50.9 L 286.3 -50.9 L 286.3 -50.9 Q 283.7 -50.9 281.9 -51.9 L 281.9 -51.9 L 281.9 -51.9 Q 280.1 -52.9 279.6 -54.5 L 279.6 -54.5 L 279.6 -54.5 Q 278.6 -52.9 276.4 -51.9 L 276.4 -51.9 L 276.4 -51.9 Q 274.3 -50.9 271.3 -50.9 L 271.3 -50.9 L 271.3 -50.9 Q 268.4 -50.9 266.1 -51.7 L 266.1 -51.7 L 266.1 -51.7 Q 263.7 -52.4 262.2 -54.1 Z M 275.7 -80.1 L 275.7 -80.1 L 275.7 -80.1 Q 275 -78.9 274.3 -77 L 274.3 -77 L 274.3 -77 Q 273.7 -75 272.6 -69.8 L 272.6 -69.8 L 272.6 -69.8 Q 271.6 -64.6 271.6 -60.9 L 271.6 -60.9 L 271.6 -60.9 Q 271.6 -57.2 272.1 -56.1 L 272.1 -56.1 L 272.1 -56.1 Q 272.7 -55 273.7 -55 L 273.7 -55 L 273.7 -55 Q 275.8 -55 277.3 -56.9 L 277.3 -56.9 L 277.3 -56.9 Q 278.8 -58.9 279.4 -62.4 L 279.4 -62.4 L 282.8 -81.1 L 282.8 -81.1 Q 281.4 -82.3 279.9 -82.3 L 279.9 -82.3 L 279.9 -82.3 Q 278.3 -82.3 277.4 -81.7 L 277.4 -81.7 L 277.4 -81.7 Q 276.4 -81.2 275.7 -80.1 Z M 314.9 -55.7 L 314.9 -55.7 L 314.9 -55.7 Q 312.9 -50.9 306.6 -50.9 L 306.6 -50.9 L 306.6 -50.9 Q 303.4 -50.9 301.3 -53.1 L 301.3 -53.1 L 301.3 -53.1 Q 299.7 -55 299.7 -57.1 L 299.7 -57.1 L 299.7 -57.1 Q 299.7 -61.9 301.9 -72.4 L 301.9 -72.4 L 306.6 -97 L 319.6 -98.3 L 313.4 -65.9 L 313.4 -65.9 Q 312.3 -61.1 312.3 -59.5 L 312.3 -59.5 L 312.3 -59.5 Q 312.3 -55.8 314.9 -55.7 Z M 335.6 -55.7 L 335.6 -55.7 L 335.6 -55.7 Q 333.7 -50.9 327.3 -50.9 L 327.3 -50.9 L 327.3 -50.9 Q 324.1 -50.9 322.1 -53.1 L 322.1 -53.1 L 322.1 -53.1 Q 320.4 -55 320.4 -57.1 L 320.4 -57.1 L 320.4 -57.1 Q 320.4 -61.9 322.6 -72.4 L 322.6 -72.4 L 327.3 -97 L 340.3 -98.3 L 334.1 -65.9 L 334.1 -65.9 Q 333 -61.1 333 -59.5 L 333 -59.5 L 333 -59.5 Q 333 -55.8 335.6 -55.7 Z M 367 -63 L 367 -63 L 367 -63 Q 368.6 -61.9 368.6 -59.5 L 368.6 -59.5 L 368.6 -59.5 Q 368.6 -57.1 367.4 -55.6 L 367.4 -55.6 L 367.4 -55.6 Q 366.2 -54 364.2 -53 L 364.2 -53 L 364.2 -53 Q 360.1 -50.9 355.7 -50.9 L 355.7 -50.9 L 355.7 -50.9 Q 351.3 -50.9 348.7 -51.9 L 348.7 -51.9 L 348.7 -51.9 Q 346.1 -52.8 344.3 -54.6 L 344.3 -54.6 L 344.3 -54.6 Q 340.9 -58 340.9 -64.2 L 340.9 -64.2 L 340.9 -64.2 Q 340.9 -73.9 346.2 -79.8 L 346.2 -79.8 L 346.2 -79.8 Q 351.8 -86.1 361.6 -86.1 L 361.6 -86.1 L 361.6 -86.1 Q 367.7 -86.1 370.7 -83.5 L 370.7 -83.5 L 370.7 -83.5 Q 372.9 -81.6 372.9 -78.5 L 372.9 -78.5 L 372.9 -78.5 Q 372.9 -67.2 353.5 -67.2 L 353.5 -67.2 L 353.5 -67.2 Q 353.2 -65.6 353.2 -64.1 L 353.2 -64.1 L 353.2 -64.1 Q 353.2 -61.2 354.5 -60.1 L 354.5 -60.1 L 354.5 -60.1 Q 355.9 -59 358.3 -59 L 358.3 -59 L 358.3 -59 Q 360.7 -59 363.3 -60.1 L 363.3 -60.1 L 363.3 -60.1 Q 365.9 -61.2 367 -63 Z M 353.9 -70 L 353.9 -70 L 353.9 -70 Q 358.5 -70 361.1 -72.8 L 361.1 -72.8 L 361.1 -72.8 Q 363.7 -75.5 363.7 -79.8 L 363.7 -79.8 L 363.7 -79.8 Q 363.7 -81.2 363.2 -82 L 363.2 -82 L 363.2 -82 Q 362.6 -82.8 361.6 -82.8 L 361.6 -82.8 L 361.6 -82.8 Q 360.5 -82.8 359.5 -82.4 L 359.5 -82.4 L 359.5 -82.4 Q 358.6 -82 357.7 -80.6 L 357.7 -80.6 L 357.7 -80.6 Q 355.3 -77.4 353.9 -70 Z M 395.2 -70.2 L 395.2 -70.2 L 395.2 -70.2 Q 397.5 -74.3 397.5 -78.4 L 397.5 -78.4 L 397.5 -78.4 Q 397.5 -81.2 395.5 -81.2 L 395.5 -81.2 L 395.5 -81.2 Q 393.9 -81.2 392.3 -78.5 L 392.3 -78.5 L 392.3 -78.5 Q 390.7 -75.9 390.2 -72.5 L 390.2 -72.5 L 386.8 -52.2 L 373.6 -50.9 L 380.1 -84.8 L 390.7 -86.1 L 389.5 -79.6 L 389.5 -79.6 Q 392.7 -86.1 399.7 -86.1 L 399.7 -86.1 L 399.7 -86.1 Q 403.4 -86.1 405.4 -84.2 L 405.4 -84.2 L 405.4 -84.2 Q 407.4 -82.3 407.4 -78.3 L 407.4 -78.3 L 407.4 -78.3 Q 407.4 -74.4 404.9 -71.9 L 404.9 -71.9 L 404.9 -71.9 Q 402.3 -69.4 397.8 -69.4 L 397.8 -69.4 L 397.8 -69.4 Q 395.9 -69.4 395.2 -70.2 Z M 428.8 -59.4 L 428.8 -59.4 L 428.8 -59.4 Q 425.5 -56 419.4 -56 L 419.4 -56 L 419.4 -56 Q 411.8 -56 410.2 -61.5 L 410.2 -61.5 L 410.2 -61.5 Q 409.7 -63.2 409.7 -65 L 409.7 -65 L 409.7 -65 Q 409.7 -66.9 410.1 -68.8 L 410.1 -68.8 L 413.1 -84.8 L 426.1 -86.1 L 422.5 -67.5 L 422.5 -67.5 Q 422.4 -66.6 422.2 -65.7 L 422.2 -65.7 L 422.2 -65.7 Q 422 -64.8 422 -63.9 L 422 -63.9 L 422 -63.9 Q 422 -63 422.4 -62.4 L 422.4 -62.4 L 422.4 -62.4 Q 422.7 -61.8 423.1 -61.4 L 423.1 -61.4 L 423.1 -61.4 Q 423.9 -60.9 425.3 -60.9 L 425.3 -60.9 L 425.3 -60.9 Q 426.6 -60.9 427.8 -62.5 L 427.8 -62.5 L 427.8 -62.5 Q 429 -64.2 429.6 -67.1 L 429.6 -67.1 L 433.1 -84.8 L 445.7 -86.1 L 440.9 -60.9 L 440.9 -60.9 Q 438.5 -48.7 433.7 -43.8 L 433.7 -43.8 L 433.7 -43.8 Q 431.2 -41.3 428 -40.3 L 428 -40.3 L 428 -40.3 Q 424.7 -39.3 420.6 -39.3 L 420.6 -39.3 L 420.6 -39.3 Q 413.8 -39.3 410 -41.4 L 410 -41.4 L 410 -41.4 Q 406.2 -43.5 406.2 -47.1 L 406.2 -47.1 L 406.2 -47.1 Q 406.2 -49.7 408.1 -51.2 L 408.1 -51.2 L 408.1 -51.2 Q 410.1 -52.7 413.2 -52.7 L 413.2 -52.7 L 413.2 -52.7 Q 415.9 -52.7 417.9 -51.5 L 417.9 -51.5 L 417.9 -51.5 Q 419.2 -50.8 419.7 -49.9 L 419.7 -49.9 L 419.7 -49.9 Q 418.3 -48.7 418.3 -46.5 L 418.3 -46.5 L 418.3 -46.5 Q 418.3 -43.7 420.8 -43.7 L 420.8 -43.7 L 420.8 -43.7 Q 425 -43.7 427.5 -53.5 L 427.5 -53.5 L 427.5 -53.5 Q 428.2 -56.3 428.8 -59.4 Z" fill="url(#editing-gradient-gradient)"></path></g></g><style>text {
  font-size: 64px;
  font-family: Arial Black;
  dominant-baseline: central;
  text-anchor: middle;
}</style></svg>