<svg width="657.9px" height="122px" xmlns="http://www.w3.org/2000/svg" viewBox="-78.94687499999998 14 657.89375 122" style="background: rgba(0, 0, 0, 0)" preserveAspectRatio="xMidYMid"><defs><linearGradient id="editing-gradient-gradient" x1="0" x2="1" y1="0.5" y2="0.5" gradientUnits="objectBoundingBox"><stop offset="0" stop-color="#51b3e6"></stop><stop offset="1" stop-color="#e64dde"></stop></linearGradient></defs><g><g transform="matrix(1.3,0,0,1.5,-43,167.5)"><path d="M -12.1 -50 L -26 -50 L -17.9 -92.2 L -3.8 -92.2 L -12.1 -50 Z M 43.7 -48.7 L 43.7 -48.7 L 43.7 -48.7 Q 35.9 -48.7 35.9 -54.7 L 35.9 -54.7 L 35.9 -54.7 Q 35.9 -57.3 37 -62.4 L 37 -62.4 L 37 -62.4 Q 38.2 -67.5 38.5 -69.6 L 38.5 -69.6 L 38.5 -69.6 Q 39.4 -74.2 39.4 -75.7 L 39.4 -75.7 L 39.4 -75.7 Q 39.4 -79 37 -79 L 37 -79 L 37 -79 Q 35.4 -79 33.9 -76.8 L 33.9 -76.8 L 33.9 -76.8 Q 32.3 -74.6 31.6 -70.1 L 31.6 -70.1 L 27.7 -50 L 15.2 -48.7 L 18.6 -66.1 L 18.6 -66.1 Q 19.2 -69 19.7 -72.2 L 19.7 -72.2 L 19.7 -72.2 Q 20.2 -75.5 20.2 -76 L 20.2 -76 L 20.2 -76 Q 20.2 -79 18.1 -79 L 18.1 -79 L 18.1 -79 Q 16.6 -79 15 -76.8 L 15 -76.8 L 15 -76.8 Q 13.4 -74.6 12.5 -70.1 L 12.5 -70.1 L 8.6 -50 L -4 -48.7 L 2.7 -82.6 L 13.1 -83.9 L 12 -77.4 L 12 -77.4 Q 13.7 -80.9 16.8 -82.4 L 16.8 -82.4 L 16.8 -82.4 Q 19.8 -83.9 24.6 -83.9 L 24.6 -83.9 L 24.6 -83.9 Q 27.4 -83.9 29.2 -82.6 L 29.2 -82.6 L 29.2 -82.6 Q 31 -81.2 31.6 -79 L 31.6 -79 L 31.6 -79 Q 32.6 -81.3 35.4 -82.6 L 35.4 -82.6 L 35.4 -82.6 Q 38.2 -83.9 41.6 -83.9 L 41.6 -83.9 L 41.6 -83.9 Q 45.1 -83.9 46.8 -83.2 L 46.8 -83.2 L 46.8 -83.2 Q 48.5 -82.4 49.5 -81.2 L 49.5 -81.2 L 49.5 -81.2 Q 51.2 -79 51.2 -74.9 L 51.2 -74.9 L 51.2 -74.9 Q 51.2 -70.8 49.5 -62.5 L 49.5 -62.5 L 49.5 -62.5 Q 48.6 -58.4 48.6 -56.9 L 48.6 -56.9 L 48.6 -56.9 Q 48.6 -55.4 49.4 -54.5 L 49.4 -54.5 L 49.4 -54.5 Q 50.3 -53.6 51.6 -53.4 L 51.6 -53.4 L 51.6 -53.4 Q 51 -51.3 48.7 -50 L 48.7 -50 L 48.7 -50 Q 46.5 -48.7 43.7 -48.7 Z M 59.3 -51.9 L 59.3 -51.9 L 59.3 -51.9 Q 57.8 -53.6 57.1 -56.2 L 57.1 -56.2 L 57.1 -56.2 Q 56.5 -58.8 56.5 -63.1 L 56.5 -63.1 L 56.5 -63.1 Q 56.5 -67.4 57.9 -71.3 L 57.9 -71.3 L 57.9 -71.3 Q 59.4 -75.2 62.1 -78 L 62.1 -78 L 62.1 -78 Q 67.6 -83.9 76.7 -83.9 L 76.7 -83.9 L 76.7 -83.9 Q 79.9 -83.9 82.3 -82.8 L 82.3 -82.8 L 93.3 -83.9 L 88.5 -58.9 L 88.5 -58.9 Q 88.3 -58.2 88.3 -56.8 L 88.3 -56.8 L 88.3 -56.8 Q 88.3 -55.4 89.2 -54.5 L 89.2 -54.5 L 89.2 -54.5 Q 90.1 -53.6 91.3 -53.4 L 91.3 -53.4 L 91.3 -53.4 Q 90.7 -51.3 88.4 -50 L 88.4 -50 L 88.4 -50 Q 86 -48.7 83.4 -48.7 L 83.4 -48.7 L 83.4 -48.7 Q 80.8 -48.7 79 -49.7 L 79 -49.7 L 79 -49.7 Q 77.3 -50.7 76.7 -52.3 L 76.7 -52.3 L 76.7 -52.3 Q 75.7 -50.7 73.5 -49.7 L 73.5 -49.7 L 73.5 -49.7 Q 71.4 -48.7 68.5 -48.7 L 68.5 -48.7 L 68.5 -48.7 Q 65.5 -48.7 63.2 -49.5 L 63.2 -49.5 L 63.2 -49.5 Q 60.8 -50.2 59.3 -51.9 Z M 72.8 -77.9 L 72.8 -77.9 L 72.8 -77.9 Q 72.1 -76.7 71.4 -74.8 L 71.4 -74.8 L 71.4 -74.8 Q 70.8 -72.8 69.7 -67.6 L 69.7 -67.6 L 69.7 -67.6 Q 68.7 -62.4 68.7 -58.7 L 68.7 -58.7 L 68.7 -58.7 Q 68.7 -55 69.3 -53.9 L 69.3 -53.9 L 69.3 -53.9 Q 69.8 -52.8 70.9 -52.8 L 70.9 -52.8 L 70.9 -52.8 Q 72.9 -52.8 74.4 -54.7 L 74.4 -54.7 L 74.4 -54.7 Q 75.9 -56.7 76.5 -60.2 L 76.5 -60.2 L 79.9 -78.9 L 79.9 -78.9 Q 78.5 -80.1 77 -80.1 L 77 -80.1 L 77 -80.1 Q 75.4 -80.1 74.5 -79.5 L 74.5 -79.5 L 74.5 -79.5 Q 73.5 -79 72.8 -77.9 Z M 101 -76.7 L 101 -76.7 L 101 -76.7 Q 103.2 -79.8 106.5 -81.8 L 106.5 -81.8 L 106.5 -81.8 Q 109.8 -83.9 113.8 -83.9 L 113.8 -83.9 L 113.8 -83.9 Q 117.8 -83.9 119.8 -82.6 L 119.8 -82.6 L 132.3 -83.9 L 127.9 -59.3 L 127.9 -59.3 Q 125.7 -46.8 121 -41.8 L 121 -41.8 L 121 -41.8 Q 116.4 -37.2 107.6 -37.2 L 107.6 -37.2 L 107.6 -37.2 Q 100.9 -37.2 97 -39.3 L 97 -39.3 L 97 -39.3 Q 93.2 -41.4 93.2 -44.9 L 93.2 -44.9 L 93.2 -44.9 Q 93.2 -47.5 95.2 -49 L 95.2 -49 L 95.2 -49 Q 97.2 -50.6 100.2 -50.6 L 100.2 -50.6 L 100.2 -50.6 Q 102.9 -50.6 105 -49.3 L 105 -49.3 L 105 -49.3 Q 106.2 -48.7 106.8 -47.8 L 106.8 -47.8 L 106.8 -47.8 Q 105.3 -46.5 105.3 -44.4 L 105.3 -44.4 L 105.3 -44.4 Q 105.3 -41.7 107.8 -41.7 L 107.8 -41.7 L 107.8 -41.7 Q 112.1 -41.7 114.6 -51.8 L 114.6 -51.8 L 114.6 -51.8 Q 115.3 -54.5 115.8 -57.3 L 115.8 -57.3 L 115.8 -57.3 Q 113 -53.8 106.4 -53.8 L 106.4 -53.8 L 106.4 -53.8 Q 101.9 -53.8 99.3 -55.9 L 99.3 -55.9 L 99.3 -55.9 Q 96.6 -58.1 96.6 -63.2 L 96.6 -63.2 L 96.6 -63.2 Q 96.6 -66.4 97.7 -70 L 97.7 -70 L 97.7 -70 Q 98.8 -73.7 101 -76.7 Z M 109.3 -63 L 109.3 -63 L 109.3 -63 Q 109.3 -58.7 111.6 -58.7 L 111.6 -58.7 L 111.6 -58.7 Q 113.1 -58.7 114.6 -60.3 L 114.6 -60.3 L 114.6 -60.3 Q 115.7 -61.7 116.2 -63.7 L 116.2 -63.7 L 119.4 -80.1 L 119.4 -80.1 Q 119.1 -80.2 118.8 -80.3 L 118.8 -80.3 L 118.8 -80.3 Q 118.2 -80.6 117.3 -80.6 L 117.3 -80.6 L 117.3 -80.6 Q 113.4 -80.6 111.1 -74.2 L 111.1 -74.2 L 111.1 -74.2 Q 109.3 -69.2 109.3 -63 Z M 160.7 -60.8 L 160.7 -60.8 L 160.7 -60.8 Q 162.3 -59.7 162.3 -57.3 L 162.3 -57.3 L 162.3 -57.3 Q 162.3 -54.9 161.1 -53.4 L 161.1 -53.4 L 161.1 -53.4 Q 159.9 -51.8 157.9 -50.8 L 157.9 -50.8 L 157.9 -50.8 Q 153.8 -48.7 149.4 -48.7 L 149.4 -48.7 L 149.4 -48.7 Q 145 -48.7 142.4 -49.7 L 142.4 -49.7 L 142.4 -49.7 Q 139.8 -50.6 138.1 -52.4 L 138.1 -52.4 L 138.1 -52.4 Q 134.7 -55.8 134.7 -62 L 134.7 -62 L 134.7 -62 Q 134.7 -71.7 139.9 -77.6 L 139.9 -77.6 L 139.9 -77.6 Q 145.5 -83.9 155.3 -83.9 L 155.3 -83.9 L 155.3 -83.9 Q 161.4 -83.9 164.4 -81.3 L 164.4 -81.3 L 164.4 -81.3 Q 166.7 -79.4 166.7 -76.3 L 166.7 -76.3 L 166.7 -76.3 Q 166.7 -65 147.2 -65 L 147.2 -65 L 147.2 -65 Q 147 -63.4 147 -61.9 L 147 -61.9 L 147 -61.9 Q 147 -59 148.3 -57.9 L 148.3 -57.9 L 148.3 -57.9 Q 149.6 -56.8 152 -56.8 L 152 -56.8 L 152 -56.8 Q 154.4 -56.8 157 -57.9 L 157 -57.9 L 157 -57.9 Q 159.6 -59 160.7 -60.8 Z M 147.7 -67.8 L 147.7 -67.8 L 147.7 -67.8 Q 152.2 -67.8 154.8 -70.6 L 154.8 -70.6 L 154.8 -70.6 Q 157.4 -73.3 157.4 -77.6 L 157.4 -77.6 L 157.4 -77.6 Q 157.4 -79 156.9 -79.8 L 156.9 -79.8 L 156.9 -79.8 Q 156.4 -80.6 155.3 -80.6 L 155.3 -80.6 L 155.3 -80.6 Q 154.2 -80.6 153.3 -80.2 L 153.3 -80.2 L 153.3 -80.2 Q 152.3 -79.8 151.4 -78.4 L 151.4 -78.4 L 151.4 -78.4 Q 149 -75.2 147.7 -67.8 Z M 188 -72.4 L 188 -72.4 L 188 -72.4 Q 188.9 -74.8 188.9 -76.9 L 188.9 -76.9 L 188.9 -76.9 Q 188.9 -80.6 185.8 -80.6 L 185.8 -80.6 L 185.8 -80.6 Q 184.2 -80.6 182.9 -79.2 L 182.9 -79.2 L 182.9 -79.2 Q 181.6 -77.8 181.6 -76 L 181.6 -76 L 181.6 -76 Q 181.6 -74.7 182.6 -73.7 L 182.6 -73.7 L 182.6 -73.7 Q 184.1 -72.2 187.8 -69.9 L 187.8 -69.9 L 187.8 -69.9 Q 191.6 -67.6 193.1 -65.8 L 193.1 -65.8 L 193.1 -65.8 Q 194.5 -63.9 194.5 -61.3 L 194.5 -61.3 L 194.5 -61.3 Q 194.5 -58.7 193.3 -56.3 L 193.3 -56.3 L 193.3 -56.3 Q 192 -53.9 189.8 -52.3 L 189.8 -52.3 L 189.8 -52.3 Q 185 -48.7 177.3 -48.7 L 177.3 -48.7 L 177.3 -48.7 Q 173.1 -48.7 169.9 -50.9 L 169.9 -50.9 L 169.9 -50.9 Q 166.7 -53 166.7 -55.5 L 166.7 -55.5 L 166.7 -55.5 Q 166.7 -58 168.6 -59.4 L 168.6 -59.4 L 168.6 -59.4 Q 170.4 -60.9 173.1 -60.9 L 173.1 -60.9 L 173.1 -60.9 Q 175.8 -60.9 177.4 -59.9 L 177.4 -59.9 L 177.4 -59.9 Q 176.6 -57.8 176.6 -56.4 L 176.6 -56.4 L 176.6 -56.4 Q 176.6 -52.2 180.2 -52.2 L 180.2 -52.2 L 180.2 -52.2 Q 181.7 -52.2 182.7 -53.1 L 182.7 -53.1 L 182.7 -53.1 Q 183.8 -54.1 183.8 -55.7 L 183.8 -55.7 L 183.8 -55.7 Q 183.8 -59 178.2 -62.5 L 178.2 -62.5 L 178.2 -62.5 Q 173.8 -65.4 172.7 -66.6 L 172.7 -66.6 L 172.7 -66.6 Q 171 -68.6 171 -71.2 L 171 -71.2 L 171 -71.2 Q 171 -73.7 172.2 -76.2 L 172.2 -76.2 L 172.2 -76.2 Q 173.4 -78.6 175.7 -80.3 L 175.7 -80.3 L 175.7 -80.3 Q 180.4 -83.9 188.5 -83.9 L 188.5 -83.9 L 188.5 -83.9 Q 192.6 -83.9 195.1 -82.2 L 195.1 -82.2 L 195.1 -82.2 Q 197.6 -80.6 197.6 -77.8 L 197.6 -77.8 L 197.6 -77.8 Q 197.6 -74.9 195.9 -73.3 L 195.9 -73.3 L 195.9 -73.3 Q 194.2 -71.7 191.1 -71.7 L 191.1 -71.7 L 191.1 -71.7 Q 189 -71.7 188 -72.4 Z M 239 -70.6 L 252 -71.7 L 252 -71.7 Q 247.4 -61.6 247.4 -49.9 L 247.4 -49.9 L 247.4 -49.9 Q 245.6 -48.7 243.1 -48.7 L 243.1 -48.7 L 243.1 -48.7 Q 240.6 -48.7 239 -49.9 L 239 -49.9 L 239 -49.9 Q 237.4 -51.1 237.1 -52.3 L 237.1 -52.3 L 237.1 -52.3 Q 235.5 -50.6 232.9 -49.7 L 232.9 -49.7 L 232.9 -49.7 Q 230.3 -48.7 227.5 -48.7 L 227.5 -48.7 L 227.5 -48.7 Q 224.8 -48.7 222.4 -49.6 L 222.4 -49.6 L 222.4 -49.6 Q 220 -50.5 218.1 -52.5 L 218.1 -52.5 L 218.1 -52.5 Q 214 -56.8 214 -65.1 L 214 -65.1 L 214 -65.1 Q 214 -77.9 220.9 -85.6 L 220.9 -85.6 L 220.9 -85.6 Q 227.9 -93.5 240.4 -93.5 L 240.4 -93.5 L 240.4 -93.5 Q 249 -93.5 252.1 -89 L 252.1 -89 L 252.1 -89 Q 253.1 -87.6 253.1 -85.9 L 253.1 -85.9 L 253.1 -85.9 Q 253.1 -84.2 252.3 -82.8 L 252.3 -82.8 L 252.3 -82.8 Q 251.6 -81.3 250.4 -80.2 L 250.4 -80.2 L 250.4 -80.2 Q 247.7 -77.6 244.3 -77.6 L 244.3 -77.6 L 244.3 -77.6 Q 243 -77.6 241.7 -78.1 L 241.7 -78.1 L 241.7 -78.1 Q 241.9 -80 241.9 -82.2 L 241.9 -82.2 L 241.9 -82.2 Q 241.9 -84.5 241.8 -85.5 L 241.8 -85.5 L 241.8 -85.5 Q 241.6 -86.5 241.2 -87.4 L 241.2 -87.4 L 241.2 -87.4 Q 240.4 -89.1 238.6 -89.1 L 238.6 -89.1 L 238.6 -89.1 Q 236.7 -89.1 234.7 -87.1 L 234.7 -87.1 L 234.7 -87.1 Q 232.7 -85.2 231.1 -82 L 231.1 -82 L 231.1 -82 Q 227.6 -74.8 227.6 -66.2 L 227.6 -66.2 L 227.6 -66.2 Q 227.6 -62.2 229.1 -59.4 L 229.1 -59.4 L 229.1 -59.4 Q 230.8 -56.3 233.7 -56.3 L 233.7 -56.3 L 233.7 -56.3 Q 234.8 -56.3 235.7 -56.8 L 235.7 -56.8 L 235.7 -56.8 Q 236.6 -57.3 237 -57.7 L 237 -57.7 L 239 -70.6 Z M 257.9 -51.9 L 257.9 -51.9 L 257.9 -51.9 Q 256.4 -53.6 255.7 -56.2 L 255.7 -56.2 L 255.7 -56.2 Q 255 -58.8 255 -63.1 L 255 -63.1 L 255 -63.1 Q 255 -67.4 256.5 -71.3 L 256.5 -71.3 L 256.5 -71.3 Q 258 -75.2 260.7 -78 L 260.7 -78 L 260.7 -78 Q 266.2 -83.9 275.3 -83.9 L 275.3 -83.9 L 275.3 -83.9 Q 278.5 -83.9 280.9 -82.8 L 280.9 -82.8 L 291.8 -83.9 L 287.1 -58.9 L 287.1 -58.9 Q 286.9 -58.2 286.9 -56.8 L 286.9 -56.8 L 286.9 -56.8 Q 286.9 -55.4 287.8 -54.5 L 287.8 -54.5 L 287.8 -54.5 Q 288.6 -53.6 289.9 -53.4 L 289.9 -53.4 L 289.9 -53.4 Q 289.3 -51.3 287 -50 L 287 -50 L 287 -50 Q 284.6 -48.7 282 -48.7 L 282 -48.7 L 282 -48.7 Q 279.4 -48.7 277.6 -49.7 L 277.6 -49.7 L 277.6 -49.7 Q 275.8 -50.7 275.3 -52.3 L 275.3 -52.3 L 275.3 -52.3 Q 274.3 -50.7 272.1 -49.7 L 272.1 -49.7 L 272.1 -49.7 Q 270 -48.7 267 -48.7 L 267 -48.7 L 267 -48.7 Q 264.1 -48.7 261.8 -49.5 L 261.8 -49.5 L 261.8 -49.5 Q 259.4 -50.2 257.9 -51.9 Z M 271.4 -77.9 L 271.4 -77.9 L 271.4 -77.9 Q 270.7 -76.7 270 -74.8 L 270 -74.8 L 270 -74.8 Q 269.4 -72.8 268.3 -67.6 L 268.3 -67.6 L 268.3 -67.6 Q 267.3 -62.4 267.3 -58.7 L 267.3 -58.7 L 267.3 -58.7 Q 267.3 -55 267.8 -53.9 L 267.8 -53.9 L 267.8 -53.9 Q 268.4 -52.8 269.4 -52.8 L 269.4 -52.8 L 269.4 -52.8 Q 271.5 -52.8 273 -54.7 L 273 -54.7 L 273 -54.7 Q 274.5 -56.7 275.1 -60.2 L 275.1 -60.2 L 278.5 -78.9 L 278.5 -78.9 Q 277.1 -80.1 275.6 -80.1 L 275.6 -80.1 L 275.6 -80.1 Q 274 -80.1 273.1 -79.5 L 273.1 -79.5 L 273.1 -79.5 Q 272.1 -79 271.4 -77.9 Z M 310.6 -53.5 L 310.6 -53.5 L 310.6 -53.5 Q 308.6 -48.7 302.3 -48.7 L 302.3 -48.7 L 302.3 -48.7 Q 299.1 -48.7 297 -50.9 L 297 -50.9 L 297 -50.9 Q 295.4 -52.8 295.4 -54.9 L 295.4 -54.9 L 295.4 -54.9 Q 295.4 -59.7 297.6 -70.2 L 297.6 -70.2 L 302.3 -94.8 L 315.3 -96.1 L 309.1 -63.7 L 309.1 -63.7 Q 308 -58.9 308 -57.3 L 308 -57.3 L 308 -57.3 Q 308 -53.6 310.6 -53.5 Z M 331.3 -53.5 L 331.3 -53.5 L 331.3 -53.5 Q 329.4 -48.7 323 -48.7 L 323 -48.7 L 323 -48.7 Q 319.8 -48.7 317.8 -50.9 L 317.8 -50.9 L 317.8 -50.9 Q 316.1 -52.8 316.1 -54.9 L 316.1 -54.9 L 316.1 -54.9 Q 316.1 -59.7 318.3 -70.2 L 318.3 -70.2 L 323 -94.8 L 336 -96.1 L 329.8 -63.7 L 329.8 -63.7 Q 328.7 -58.9 328.7 -57.3 L 328.7 -57.3 L 328.7 -57.3 Q 328.7 -53.6 331.3 -53.5 Z M 362.7 -60.8 L 362.7 -60.8 L 362.7 -60.8 Q 364.3 -59.7 364.3 -57.3 L 364.3 -57.3 L 364.3 -57.3 Q 364.3 -54.9 363.1 -53.4 L 363.1 -53.4 L 363.1 -53.4 Q 361.9 -51.8 359.9 -50.8 L 359.9 -50.8 L 359.9 -50.8 Q 355.8 -48.7 351.4 -48.7 L 351.4 -48.7 L 351.4 -48.7 Q 347 -48.7 344.4 -49.7 L 344.4 -49.7 L 344.4 -49.7 Q 341.8 -50.6 340 -52.4 L 340 -52.4 L 340 -52.4 Q 336.6 -55.8 336.6 -62 L 336.6 -62 L 336.6 -62 Q 336.6 -71.7 341.9 -77.6 L 341.9 -77.6 L 341.9 -77.6 Q 347.5 -83.9 357.3 -83.9 L 357.3 -83.9 L 357.3 -83.9 Q 363.4 -83.9 366.4 -81.3 L 366.4 -81.3 L 366.4 -81.3 Q 368.6 -79.4 368.6 -76.3 L 368.6 -76.3 L 368.6 -76.3 Q 368.6 -65 349.2 -65 L 349.2 -65 L 349.2 -65 Q 348.9 -63.4 348.9 -61.9 L 348.9 -61.9 L 348.9 -61.9 Q 348.9 -59 350.2 -57.9 L 350.2 -57.9 L 350.2 -57.9 Q 351.6 -56.8 354 -56.8 L 354 -56.8 L 354 -56.8 Q 356.4 -56.8 359 -57.9 L 359 -57.9 L 359 -57.9 Q 361.6 -59 362.7 -60.8 Z M 349.6 -67.8 L 349.6 -67.8 L 349.6 -67.8 Q 354.2 -67.8 356.8 -70.6 L 356.8 -70.6 L 356.8 -70.6 Q 359.4 -73.3 359.4 -77.6 L 359.4 -77.6 L 359.4 -77.6 Q 359.4 -79 358.9 -79.8 L 358.9 -79.8 L 358.9 -79.8 Q 358.3 -80.6 357.3 -80.6 L 357.3 -80.6 L 357.3 -80.6 Q 356.2 -80.6 355.2 -80.2 L 355.2 -80.2 L 355.2 -80.2 Q 354.3 -79.8 353.4 -78.4 L 353.4 -78.4 L 353.4 -78.4 Q 351 -75.2 349.6 -67.8 Z M 390.9 -68 L 390.9 -68 L 390.9 -68 Q 393.2 -72.1 393.2 -76.2 L 393.2 -76.2 L 393.2 -76.2 Q 393.2 -79 391.2 -79 L 391.2 -79 L 391.2 -79 Q 389.6 -79 388 -76.3 L 388 -76.3 L 388 -76.3 Q 386.4 -73.7 385.9 -70.3 L 385.9 -70.3 L 382.5 -50 L 369.3 -48.7 L 375.8 -82.6 L 386.4 -83.9 L 385.2 -77.4 L 385.2 -77.4 Q 388.4 -83.9 395.4 -83.9 L 395.4 -83.9 L 395.4 -83.9 Q 399.1 -83.9 401.1 -82 L 401.1 -82 L 401.1 -82 Q 403.1 -80.1 403.1 -76.1 L 403.1 -76.1 L 403.1 -76.1 Q 403.1 -72.2 400.6 -69.7 L 400.6 -69.7 L 400.6 -69.7 Q 398 -67.2 393.5 -67.2 L 393.5 -67.2 L 393.5 -67.2 Q 391.6 -67.2 390.9 -68 Z M 424.5 -57.2 L 424.5 -57.2 L 424.5 -57.2 Q 421.2 -53.8 415.1 -53.8 L 415.1 -53.8 L 415.1 -53.8 Q 407.5 -53.8 405.9 -59.3 L 405.9 -59.3 L 405.9 -59.3 Q 405.4 -61 405.4 -62.8 L 405.4 -62.8 L 405.4 -62.8 Q 405.4 -64.7 405.8 -66.6 L 405.8 -66.6 L 408.8 -82.6 L 421.8 -83.9 L 418.2 -65.3 L 418.2 -65.3 Q 418.1 -64.4 417.9 -63.5 L 417.9 -63.5 L 417.9 -63.5 Q 417.7 -62.6 417.7 -61.7 L 417.7 -61.7 L 417.7 -61.7 Q 417.7 -60.8 418.1 -60.2 L 418.1 -60.2 L 418.1 -60.2 Q 418.4 -59.6 418.8 -59.2 L 418.8 -59.2 L 418.8 -59.2 Q 419.6 -58.7 421 -58.7 L 421 -58.7 L 421 -58.7 Q 422.3 -58.7 423.5 -60.3 L 423.5 -60.3 L 423.5 -60.3 Q 424.7 -62 425.3 -64.9 L 425.3 -64.9 L 428.8 -82.6 L 441.4 -83.9 L 436.6 -58.7 L 436.6 -58.7 Q 434.2 -46.5 429.4 -41.6 L 429.4 -41.6 L 429.4 -41.6 Q 426.9 -39.1 423.7 -38.1 L 423.7 -38.1 L 423.7 -38.1 Q 420.4 -37.1 416.3 -37.1 L 416.3 -37.1 L 416.3 -37.1 Q 409.5 -37.1 405.7 -39.2 L 405.7 -39.2 L 405.7 -39.2 Q 401.9 -41.3 401.9 -44.9 L 401.9 -44.9 L 401.9 -44.9 Q 401.9 -47.5 403.8 -49 L 403.8 -49 L 403.8 -49 Q 405.8 -50.5 408.9 -50.5 L 408.9 -50.5 L 408.9 -50.5 Q 411.6 -50.5 413.6 -49.3 L 413.6 -49.3 L 413.6 -49.3 Q 414.9 -48.6 415.4 -47.7 L 415.4 -47.7 L 415.4 -47.7 Q 414 -46.5 414 -44.3 L 414 -44.3 L 414 -44.3 Q 414 -41.5 416.5 -41.5 L 416.5 -41.5 L 416.5 -41.5 Q 420.7 -41.5 423.2 -51.3 L 423.2 -51.3 L 423.2 -51.3 Q 423.9 -54.1 424.5 -57.2 Z" fill="url(#editing-gradient-gradient)"></path></g></g><style>text {
  font-size: 64px;
  font-family: Arial Black;
  dominant-baseline: central;
  text-anchor: middle;
}</style></svg>